<?xml version="1.0" encoding="UTF-8"?>
<svg version="1.1" xmlns="http://www.w3.org/2000/svg" width="294" height="122">
<path d="M0 0 C14.13793103 0 14.13793103 0 19 3 C21.51419926 5.91971527 21.96340947 7.65848838 22.375 11.5 C22 15 22 15 20.375 17.625 C18.65499537 19.95700537 18.65499537 19.95700537 19.6875 22.6875 C20.91932102 25.09660702 20.91932102 25.09660702 23 27 C23.29769287 26.21761963 23.59538574 25.43523926 23.90209961 24.62915039 C25.00510099 21.73412178 26.11049214 18.84002071 27.2175293 15.9465332 C27.93268815 14.07509174 28.6450647 12.20258783 29.35742188 10.33007812 C29.80537109 9.16025391 30.25332031 7.99042969 30.71484375 6.78515625 C31.12855225 5.70113525 31.54226074 4.61711426 31.96850586 3.50024414 C33 1 33 1 34 0 C35.66617115 -0.04063832 37.33388095 -0.042721 39 0 C40.65293577 4.05964605 42.29609653 8.123179 43.9375 12.1875 C44.40607422 13.33798828 44.87464844 14.48847656 45.35742188 15.67382812 C45.80537109 16.78564453 46.25332031 17.89746094 46.71484375 19.04296875 C47.12855225 20.06414795 47.54226074 21.08532715 47.96850586 22.13745117 C48.91499026 24.76408541 49.53861936 27.25158423 50 30 C47.69 30 45.38 30 43 30 C42.505 28.02 42.505 28.02 42 26 C38.37 26 34.74 26 31 26 C30.67 27.32 30.34 28.64 30 30 C27.41414795 30.16236745 24.83848046 30.28095486 22.25 30.375 C21.52039063 30.42527344 20.79078125 30.47554687 20.0390625 30.52734375 C17.890625 30.5859375 17.890625 30.5859375 14 30 C11.609375 27.0390625 11.609375 27.0390625 10 24 C9.34 23.67 8.68 23.34 8 23 C8 25.31 8 27.62 8 30 C5.36 30 2.72 30 0 30 C0 20.1 0 10.2 0 0 Z M8 7 C8 9.97 8 12.94 8 16 C9.98 15.67 11.96 15.34 14 15 C14.76956136 12.65466049 14.76956136 12.65466049 15 10 C13.91666667 8.08333333 13.91666667 8.08333333 12 7 C10.68 7 9.36 7 8 7 Z M36 12 C34.515 15.96 34.515 15.96 33 20 C34.98 20 36.96 20 39 20 C38.34 17.36 37.68 14.72 37 12 C36.67 12 36.34 12 36 12 Z " fill="#FFFFFF" transform="translate(143,63)"/>
<path d="M0 0 C14.13793103 0 14.13793103 0 19 3 C21.51419926 5.91971527 21.96340947 7.65848838 22.375 11.5 C22 15 22 15 20.375 17.625 C18.65499537 19.95700537 18.65499537 19.95700537 19.6875 22.6875 C20.91932102 25.09660702 20.91932102 25.09660702 23 27 C23.29769287 26.21761963 23.59538574 25.43523926 23.90209961 24.62915039 C25.00510099 21.73412178 26.11049214 18.84002071 27.2175293 15.9465332 C27.93268815 14.07509174 28.6450647 12.20258783 29.35742188 10.33007812 C29.80537109 9.16025391 30.25332031 7.99042969 30.71484375 6.78515625 C31.12855225 5.70113525 31.54226074 4.61711426 31.96850586 3.50024414 C33 1 33 1 34 0 C35.66617115 -0.04063832 37.33388095 -0.042721 39 0 C40.65293577 4.05964605 42.29609653 8.123179 43.9375 12.1875 C44.40607422 13.33798828 44.87464844 14.48847656 45.35742188 15.67382812 C45.80537109 16.78564453 46.25332031 17.89746094 46.71484375 19.04296875 C47.12855225 20.06414795 47.54226074 21.08532715 47.96850586 22.13745117 C48.91499026 24.76408541 49.53861936 27.25158423 50 30 C47.69 30 45.38 30 43 30 C42.505 28.02 42.505 28.02 42 26 C38.37 26 34.74 26 31 26 C30.67 27.32 30.34 28.64 30 30 C27.41414795 30.16236745 24.83848046 30.28095486 22.25 30.375 C21.52039063 30.42527344 20.79078125 30.47554687 20.0390625 30.52734375 C17.890625 30.5859375 17.890625 30.5859375 14 30 C11.609375 27.0390625 11.609375 27.0390625 10 24 C9.34 23.67 8.68 23.34 8 23 C8 25.31 8 27.62 8 30 C5.36 30 2.72 30 0 30 C0 20.1 0 10.2 0 0 Z M8 7 C8 9.97 8 12.94 8 16 C9.98 15.67 11.96 15.34 14 15 C14.76956136 12.65466049 14.76956136 12.65466049 15 10 C13.91666667 8.08333333 13.91666667 8.08333333 12 7 C10.68 7 9.36 7 8 7 Z M36 12 C34.515 15.96 34.515 15.96 33 20 C34.98 20 36.96 20 39 20 C38.34 17.36 37.68 14.72 37 12 C36.67 12 36.34 12 36 12 Z " fill="#FFFFFF" transform="translate(66,63)"/>
<path d="M0 0 C1.98 0 3.96 0 6 0 C8.046875 2.046875 8.046875 2.046875 9.75 4.75 C10.60851562 6.07257813 10.60851562 6.07257813 11.484375 7.421875 C12.7443679 9.5651619 13.88813123 11.77626245 15 14 C15.33 9.38 15.66 4.76 16 0 C18.31 0 20.62 0 23 0 C23 9.9 23 19.8 23 30 C21.02 30 19.04 30 17 30 C14.6640625 27.375 14.6640625 27.375 12.625 24 C11.59246094 22.329375 11.59246094 22.329375 10.5390625 20.625 C9.77722656 19.325625 9.77722656 19.325625 9 18 C8.67 21.96 8.34 25.92 8 30 C5.36 30 2.72 30 0 30 C0 20.1 0 10.2 0 0 Z " fill="#FFFFFF" transform="translate(11,63)"/>
<path d="M0 0 C14.96551724 0 14.96551724 0 19 3 C22.89423116 7.10473014 23.78560091 9.77024943 24.3125 15.25 C23.93515381 19.77815429 22.76162328 23.36003809 20 27 C15 30 15 30 0 30 C0 20.1 0 10.2 0 0 Z M8 7 C8 12.61 8 18.22 8 24 C13.7018576 22.59628479 13.7018576 22.59628479 16 20 C17.4050939 15.78471829 16.78716 13.02110999 15 9 C12.04622502 6.63019987 12.04622502 6.63019987 8 7 Z " fill="#FFFFFF" transform="translate(39,63)"/>
<path d="M0 0 C2.64 0 5.28 0 8 0 C8 3.96 8 7.92 8 12 C10.64 12 13.28 12 16 12 C16 8.04 16 4.08 16 0 C18.31 0 20.62 0 23 0 C23 9.9 23 19.8 23 30 C20.69 30 18.38 30 16 30 C16 26.37 16 22.74 16 19 C13.36 19 10.72 19 8 19 C8 22.63 8 26.26 8 30 C5.36 30 2.72 30 0 30 C0 20.1 0 10.2 0 0 Z " fill="#FFFFFF" transform="translate(240,63)"/>
<path d="M0 0 C14.13793103 0 14.13793103 0 19 3 C21.51419926 5.91971527 21.96340947 7.65848838 22.375 11.5 C21.96340947 15.34151162 21.51419926 17.08028473 19 20 C14.9900717 22.11432583 12.55590044 23 8 23 C8 25.31 8 27.62 8 30 C5.36 30 2.72 30 0 30 C0 20.1 0 10.2 0 0 Z M8 7 C8 9.97 8 12.94 8 16 C9.98 15.67 11.96 15.34 14 15 C14.76956136 12.65466049 14.76956136 12.65466049 15 10 C13.91666667 8.08333333 13.91666667 8.08333333 12 7 C10.68 7 9.36 7 8 7 Z " fill="#FFFFFF" transform="translate(118,63)"/>
<path d="M0 0 C2.625 -0.1875 2.625 -0.1875 5 0 C6.65293577 4.05964605 8.29609653 8.123179 9.9375 12.1875 C10.40607422 13.33798828 10.87464844 14.48847656 11.35742188 15.67382812 C11.80537109 16.78564453 12.25332031 17.89746094 12.71484375 19.04296875 C13.12855225 20.06414795 13.54226074 21.08532715 13.96850586 22.13745117 C14.91499026 24.76408541 15.53861936 27.25158423 16 30 C13.69 30 11.38 30 9 30 C8.67 28.68 8.34 27.36 8 26 C4.37 26 0.74 26 -3 26 C-3.33 27.32 -3.66 28.64 -4 30 C-6.64 30 -9.28 30 -12 30 C-10.61750747 26.20785727 -9.22984397 22.4176516 -7.83740234 18.62915039 C-7.36462887 17.34060775 -6.89326109 16.05154844 -6.42333984 14.76196289 C-5.74688312 12.90635485 -5.06491524 11.05275881 -4.3828125 9.19921875 C-3.97434082 8.08377686 -3.56586914 6.96833496 -3.14501953 5.8190918 C-2 3 -2 3 0 0 Z M2 12 C0.515 15.96 0.515 15.96 -1 20 C0.98 20 2.96 20 5 20 C4.34 17.36 3.68 14.72 3 12 C2.67 12 2.34 12 2 12 Z " fill="#FFFFFF" transform="translate(277,63)"/>
<path d="M0 0 C3.0625 1.5 3.0625 1.5 5 3 C4.01 4.98 3.02 6.96 2 9 C-2.455 8.01 -2.455 8.01 -7 7 C-6.32539994 10.14338838 -6.32539994 10.14338838 -3.78515625 11.24609375 C-1.97319373 12.03898983 -0.16069476 12.83066113 1.65234375 13.62109375 C4.30545806 15.17941214 4.9942453 16.13746739 6 19 C6.4375 21.9375 6.4375 21.9375 6 25 C3.827365 27.57285724 2.02006162 29.48996919 -1 31 C-7.26407421 31.52200618 -10.09822453 30.92142038 -15 27 C-14.6875 25.125 -14.6875 25.125 -14 23 C-13.01 22.34 -12.02 21.68 -11 21 C-10.443125 21.33 -9.88625 21.66 -9.3125 22 C-6.69715478 23.1309601 -4.8193354 23.15662974 -2 23 C-2.33 22.01 -2.66 21.02 -3 20 C-5.00176614 18.97721965 -5.00176614 18.97721965 -7.375 18.1875 C-10.72389093 16.77744066 -11.8890323 16.14267276 -14.1875 13.1875 C-15.23896102 9.06253755 -14.68441301 6.88147347 -13 3 C-9.72198422 -1.06473957 -4.81664499 -0.66850233 0 0 Z " fill="#FFFFFF" transform="translate(209,63)"/>
<path d="M0 0 C7.59 0 15.18 0 23 0 C23 2.31 23 4.62 23 7 C20.36 7 17.72 7 15 7 C15 14.59 15 22.18 15 30 C12.69 30 10.38 30 8 30 C8 22.41 8 14.82 8 7 C5.36 7 2.72 7 0 7 C0 4.69 0 2.38 0 0 Z " fill="#FFFFFF" transform="translate(215,63)"/>
<path d="M0 0 C2.76079336 2.09439496 3.64968318 4.13135307 4.8125 7.375 C4.89364216 12.00010287 4.28738624 13.80513651 1.3125 17.375 C-1.42279751 19.37031365 -3.45181618 19.68855322 -6.8125 19.5 C-9.98933655 18.91606208 -11.16204758 18.39548609 -13.75 16.3125 C-15.60869256 12.51430216 -16.0346185 9.52671936 -15.1875 5.375 C-11.50607712 -0.59144398 -6.72915667 -1.92261619 0 0 Z " fill="#FFFFFF" transform="translate(80.1875,30.625)"/>
<path d="M0 0 C3.05890258 1.52945129 4.49089112 2.58413508 5.66015625 5.8359375 C6.46484859 9.91408702 6.17695719 11.66439154 4.1875 15.4375 C2.0132344 17.98449684 1.23341237 18.80856665 -1.98828125 19.30859375 C-6.57061013 19.56273972 -8.3833541 19.50338441 -12.0625 16.5 C-14.71565523 12.58960049 -14.73301898 9.61801955 -14 5 C-10.40537933 -0.56586427 -6.16466721 -1.17262692 0 0 Z " fill="#FFFFFF" transform="translate(79,0)"/>
<path d="M0 0 C2.64 0 5.28 0 8 0 C8 9.9 8 19.8 8 30 C5.36 30 2.72 30 0 30 C0 20.1 0 10.2 0 0 Z " fill="#FFFFFF" transform="translate(0,63)"/>
<path d="M0 0 C2.31 0 4.62 0 7 0 C8.04028969 3.38094149 8.15672777 6.47362528 8 10 C7 11 7 11 3.4375 11.0625 C2.303125 11.041875 1.16875 11.02125 0 11 C0 7.37 0 3.74 0 0 Z M2 2 C2 2.66 2 3.32 2 4 C2.99 4 3.98 4 5 4 C5 3.34 5 2.68 5 2 C4.01 2 3.02 2 2 2 Z M2 6 C2 6.99 2 7.98 2 9 C2.99 9 3.98 9 5 9 C4.67 8.01 4.34 7.02 4 6 C3.34 6 2.68 6 2 6 Z " fill="#FFFFFF" transform="translate(85,111)"/>
<path d="M0 0 C2.64 0 5.28 0 8 0 C8 0.66 8 1.32 8 2 C6.35 2 4.7 2 3 2 C3 2.66 3 3.32 3 4 C4.65 4 6.3 4 8 4 C8 4.99 8 5.98 8 7 C6.35 7 4.7 7 3 7 C3 7.66 3 8.32 3 9 C4.65 9 6.3 9 8 9 C8 9.66 8 10.32 8 11 C5.36 11 2.72 11 0 11 C0 7.37 0 3.74 0 0 Z " fill="#FFFFFF" transform="translate(140,111)"/>
<path d="M0 0 C2.64 0 5.28 0 8 0 C8 0.66 8 1.32 8 2 C6.35 2 4.7 2 3 2 C3 2.66 3 3.32 3 4 C4.65 4 6.3 4 8 4 C8 4.99 8 5.98 8 7 C6.35 7 4.7 7 3 7 C3 7.66 3 8.32 3 9 C4.65 9 6.3 9 8 9 C8 9.66 8 10.32 8 11 C5.36 11 2.72 11 0 11 C0 7.37 0 3.74 0 0 Z " fill="#FFFFFF" transform="translate(99,111)"/>
<path d="M0 0 C2.31 0 4.62 0 7 0 C7.66523639 3.74195471 8 7.20436828 8 11 C6.68 10.67 5.36 10.34 4 10 C4 9.34 4 8.68 4 8 C3.34 8 2.68 8 2 8 C2 8.99 2 9.98 2 11 C1.34 11 0.68 11 0 11 C0 7.37 0 3.74 0 0 Z M2 2 C2.33 3.32 2.66 4.64 3 6 C3.66 5.67 4.32 5.34 5 5 C5 4.01 5 3.02 5 2 C4.01 2 3.02 2 2 2 Z " fill="#FFFFFF" transform="translate(155,111)"/>
<path d="M0 0 C2.64 0 5.28 0 8 0 C8 0.66 8 1.32 8 2 C6.02 2 4.04 2 2 2 C2 2.66 2 3.32 2 4 C3.65 4 5.3 4 7 4 C7 4.99 7 5.98 7 7 C5.35 7 3.7 7 2 7 C2 7.66 2 8.32 2 9 C3.98 9 5.96 9 8 9 C8 9.66 8 10.32 8 11 C5.36 11 2.72 11 0 11 C0 7.37 0 3.74 0 0 Z " fill="#FFFFFF" transform="translate(61,111)"/>
<path d="M0 0 C0.99 0 1.98 0 3 0 C3.66 1.65 4.32 3.3 5 5 C5.45375 4.175 5.9075 3.35 6.375 2.5 C6.91125 1.675 7.4475 0.85 8 0 C8.66 0 9.32 0 10 0 C9.32829194 3.8063457 8.27253436 7.35206816 7 11 C6.01 11 5.02 11 4 11 C2.68 7.37 1.36 3.74 0 0 Z " fill="#FFFFFF" transform="translate(45,111)"/>
<path d="M0 0 C2.97 0 5.94 0 9 0 C9 0.66 9 1.32 9 2 C8.01 2 7.02 2 6 2 C6 4.97 6 7.94 6 11 C5.34 11 4.68 11 4 11 C4 8.03 4 5.06 4 2 C2.68 2 1.36 2 0 2 C0 1.34 0 0.68 0 0 Z " fill="#FFFFFF" transform="translate(112,111)"/>
<path d="M0 0 C2.64 0 5.28 0 8 0 C8 0.66 8 1.32 8 2 C7.01 2 6.02 2 5 2 C5 4.97 5 7.94 5 11 C4.34 11 3.68 11 3 11 C3 8.03 3 5.06 3 2 C2.01 2 1.02 2 0 2 C0 1.34 0 0.68 0 0 Z " fill="#FFFFFF" transform="translate(126,111)"/>
<path d="M0 0 C0.66 0 1.32 0 2 0 C2 2.97 2 5.94 2 9 C3.98 9 5.96 9 8 9 C8 9.66 8 10.32 8 11 C5.36 11 2.72 11 0 11 C0 7.37 0 3.74 0 0 Z " fill="#FFFFFF" transform="translate(24,111)"/>
<path d="M0 0 C0.99 0 1.98 0 3 0 C3 3.63 3 7.26 3 11 C2.01 11 1.02 11 0 11 C0 7.37 0 3.74 0 0 Z " fill="#FFFFFF" transform="translate(37,111)"/>
</svg>
