<svg width="173" height="61" viewBox="0 0 173 61" fill="none" xmlns="http://www.w3.org/2000/svg">
<g clip-path="url(#clip0_1093332_2)">
<path d="M141.487 24.6172H134.954V53.9567H141.523V24.6172H141.487Z" fill="#010101"/>
<path fill-rule="evenodd" clip-rule="evenodd" d="M31.1545 8.80273V35.3156H42.2811V24.6174H48.8493V35.3156V41.8633V53.9569H42.2811V41.8633H31.1545V53.9569H24.6221V41.8633V35.3156V8.80273H31.1545Z" fill="#010101"/>
<path d="M61.5907 24.6172H55.0225V53.9567H61.5907V24.6172Z" fill="#010101"/>
<path fill-rule="evenodd" clip-rule="evenodd" d="M67.3691 24.6172H73.9374L79.2135 42.7218L80.2185 46.2282C80.4338 47.0869 80.6492 47.5163 80.8645 47.4447C81.1158 47.5163 81.3311 47.0512 81.5106 46.2282L82.5515 42.7218L87.7917 24.6172H94.36L86.5714 49.6989L86.3919 50.2356L86.3201 50.4502C86.1048 51.1658 85.71 51.8457 85.1716 52.3823C84.6691 52.919 84.0231 53.3484 83.3052 53.6346C81.6901 54.1356 79.9672 54.1356 78.3521 53.6346C77.6343 53.3484 76.9882 52.919 76.4857 52.3823C75.9832 51.8457 75.5884 51.1658 75.3372 50.4502L75.2654 50.2356L75.0859 49.6989L67.3691 24.6172Z" fill="#010101"/>
<path d="M128.601 8.80273H122.033V53.9569H128.601V8.80273Z" fill="#010101"/>
<path fill-rule="evenodd" clip-rule="evenodd" d="M91.8838 54.0283H98.452L100.247 47.8384H110.512L112.306 54.0283H118.839L111.086 28.9825L110.907 28.4458L110.835 28.2311C110.619 27.5155 110.225 26.8357 109.686 26.299C109.148 25.7623 108.538 25.3329 107.82 25.0467C107.03 24.7247 106.205 24.6173 105.343 24.6531C104.518 24.6173 103.656 24.7604 102.867 25.0467C102.149 25.3329 101.503 25.7623 101 26.299C100.498 26.8357 100.103 27.5155 99.8518 28.2311L99.7801 28.4458L99.6006 28.9825L91.8838 54.0283ZM102.149 41.3265L103.728 35.9595L104.769 32.4531C104.949 31.5944 105.164 31.165 105.415 31.2366C105.63 31.165 105.846 31.5944 106.061 32.4531L107.066 35.9595L108.645 41.3265H102.149Z" fill="#010101"/>
<path fill-rule="evenodd" clip-rule="evenodd" d="M154.408 8.80273V36.3532L163.919 24.5459H172.354L161.335 38.2138L172.641 53.9211H164.206L154.408 40.289V53.9211H147.84V8.80273H154.408Z" fill="#010101"/>
<path fill-rule="evenodd" clip-rule="evenodd" d="M169.806 11.6294C169.806 11.7009 169.806 11.7725 169.77 11.844C169.734 11.9156 169.698 11.9514 169.662 12.0229C169.626 12.0587 169.554 12.0945 169.483 12.1303C169.411 12.1661 169.339 12.1661 169.267 12.1661H168.585V11.1642H169.267C169.339 11.1642 169.411 11.1642 169.483 11.2C169.554 11.2358 169.626 11.2716 169.662 11.3073C169.698 11.3431 169.77 11.4147 169.77 11.4862C169.77 11.4862 169.806 11.5578 169.806 11.6294ZM170.667 14.2413L169.806 12.5954C170.021 12.5239 170.2 12.3807 170.308 12.2018C170.416 12.0229 170.488 11.8083 170.488 11.5936C170.488 11.4505 170.452 11.2716 170.416 11.1284C170.344 10.9853 170.272 10.8422 170.165 10.7349C170.057 10.6275 169.913 10.556 169.77 10.4844C169.626 10.4128 169.447 10.4128 169.303 10.4128H167.832V14.2055H168.585V12.7027H169.124L169.877 14.2055H170.667V14.2413ZM169.088 8.80273C169.806 8.80273 170.488 9.01741 171.062 9.37521C171.636 9.76878 172.103 10.3055 172.39 10.9495C172.677 11.5936 172.749 12.3092 172.605 12.989C172.462 13.6688 172.139 14.3128 171.636 14.8138C171.134 15.3147 170.523 15.6367 169.806 15.7798C169.124 15.9229 168.406 15.8514 167.76 15.5651C167.114 15.3147 166.539 14.8495 166.18 14.2771C165.786 13.7046 165.57 13.0248 165.57 12.3092C165.57 11.3789 165.929 10.4844 166.611 9.80456C167.257 9.19631 168.155 8.83851 169.088 8.80273Z" fill="#010101"/>
<path fill-rule="evenodd" clip-rule="evenodd" d="M0.430679 49.0541C2.87134 49.7339 5.02487 50.2348 7.57321 50.2348C8.93711 50.2348 10.4087 50.0917 11.4855 49.5908C11.9879 49.3761 12.4186 48.9826 12.7058 48.5174C12.9929 48.0523 13.1365 47.4798 13.1006 46.9431C13.1006 44.689 10.0857 43.1147 7.78857 41.9339L6.92715 41.4688C5.3479 40.6459 3.73276 39.7156 2.47653 38.4991C1.79458 37.855 1.22031 37.0679 0.861384 36.2092C0.502463 35.3504 0.287109 34.4202 0.287109 33.4899C0.287109 30.4844 1.50744 28.3734 3.40972 26.9422C5.63504 25.2963 8.75765 24.6523 11.8803 24.6523C12.8135 24.6523 13.7825 24.7238 14.7516 24.7954C15.7207 24.867 16.6898 25.0101 17.5871 25.1532L18.2691 25.2605V29.0532L17.4077 28.9459C17.2282 28.9101 16.7616 28.8743 16.295 28.8027C15.0029 28.6238 13.6749 28.4807 12.3469 28.4449C11.0547 28.4449 9.54728 28.6238 8.57819 29.2321C8.21927 29.4468 7.96803 29.733 7.75267 30.0908C7.53732 30.4486 7.46554 30.8422 7.50143 31.2358C7.53732 31.844 7.82446 32.4523 8.29106 32.8816C9.08068 33.7046 10.0139 34.3844 11.0547 34.8853C11.5213 35.1358 11.9879 35.3862 12.4904 35.6367C16.4027 37.7119 20.7456 40.0018 20.7456 45.011C20.7456 48.0881 19.4535 50.2349 17.5153 51.6303C15.1464 53.3477 11.8444 53.956 8.61408 53.956C5.85039 53.956 3.0867 53.5982 0.430679 52.8826V49.0541Z" fill="#010101"/>
</g>
<defs>
<clipPath id="clip0_1093332_2">
<rect width="173" height="61" fill="white"/>
</clipPath>
</defs>
</svg>
