<?xml version="1.0" encoding="utf-8"?>
<!-- Generator: Adobe Illustrator 16.0.0, SVG Export Plug-In . SVG Version: 6.00 Build 0)  -->
<!DOCTYPE svg PUBLIC "-//W3C//DTD SVG 1.1//EN" "http://www.w3.org/Graphics/SVG/1.1/DTD/svg11.dtd">
<svg version="1.1" id="Layer_1" xmlns="http://www.w3.org/2000/svg" xmlns:xlink="http://www.w3.org/1999/xlink" x="0px" y="0px"
	 width="169.951px" height="54.691px" viewBox="0 0 169.951 54.691" enable-background="new 0 0 169.951 54.691"
	 xml:space="preserve">
<path id="Path_7952" d="M22.413,28.836c0.12,2.815-1.14,5.513-3.375,7.228c-2.249,1.747-5.353,2.62-9.313,2.62
	c-3.334,0.123-6.655-0.498-9.719-1.818v-5.339c1.632,0.753,3.337,1.339,5.087,1.748c1.642,0.406,3.325,0.62,5.015,0.638
	c1.767,0.138,3.529-0.311,5.015-1.276c1.06-0.813,1.662-2.089,1.616-3.425c0.014-1.26-0.529-2.462-1.484-3.283
	c-1.866-1.373-3.934-2.448-6.129-3.189c-3.193-1.274-5.443-2.731-6.751-4.368c-1.323-1.68-2.018-3.769-1.963-5.905
	c-0.113-2.635,1.044-5.163,3.112-6.8c2.418-1.762,5.368-2.638,8.355-2.48c3.451,0.021,6.858,0.762,10.007,2.173l-1.82,4.606
	c-2.625-1.182-5.455-1.84-8.331-1.938c-1.5-0.105-2.99,0.316-4.213,1.193c-0.945,0.769-1.476,1.936-1.436,3.153
	c-0.023,0.805,0.176,1.601,0.575,2.3c0.485,0.737,1.132,1.355,1.891,1.807c1.517,0.876,3.102,1.627,4.74,2.244
	c1.997,0.749,3.894,1.741,5.649,2.952c1.109,0.81,2.011,1.869,2.633,3.094C22.16,26.044,22.447,27.435,22.413,28.836z"/>
<path id="Path_7953" d="M62.1,38.686h-6.224l-5.937-20.875c-0.255-0.909-0.574-2.222-0.957-3.938
	c-0.383-1.717-0.614-2.909-0.694-3.579c-0.159,1.021-0.419,2.347-0.778,3.974c-0.359,1.628-0.659,2.841-0.9,3.639l-5.796,20.779
	h-6.22l-4.525-17.519l-4.6-17.477h5.845l5,20.4c0.703,2.858,1.262,5.751,1.676,8.666c0.175-1.356,0.438-2.873,0.79-4.549
	c0.351-1.677,0.67-3.033,0.958-4.07l5.7-20.444h5.676l5.841,20.539c0.75,2.806,1.342,5.651,1.771,8.523
	c0.367-2.942,0.943-5.854,1.723-8.714l4.98-20.349h5.793L62.1,38.686z"/>
<path id="Path_7954" d="M92.063,24.035l-3.278-9.528c-0.239-0.638-0.571-1.644-0.994-3.017c-0.423-1.372-0.715-2.378-0.874-3.016
	c-0.495,2.184-1.127,4.334-1.891,6.439l-3.16,9.121H92.063z M97.063,38.686l-3.494-9.719H80.19l-3.423,9.719h-6.033L83.829,3.543
	h6.222l13.101,35.143H97.063z"/>
<path id="Path_7955" d="M113.255,19.967h3.975c2.666,0,4.598-0.495,5.793-1.484c1.25-1.108,1.914-2.733,1.8-4.399
	c0.148-1.663-0.588-3.281-1.939-4.262c-1.782-0.981-3.81-1.43-5.841-1.293h-3.781v11.438H113.255z M113.255,24.707v13.979h-5.722
	v-35h9.887c4.517,0,7.86,0.846,10.031,2.538s3.255,4.245,3.255,7.66c0,4.357-2.267,7.462-6.801,9.313l9.888,15.489h-6.511
	l-8.379-13.979H113.255z"/>
<path id="Path_7956" d="M158.862,24.035l-3.279-9.528c-0.239-0.638-0.57-1.644-0.994-3.017c-0.424-1.372-0.715-2.378-0.874-3.016
	c-0.495,2.184-1.126,4.334-1.891,6.439l-3.16,9.121H158.862z M163.862,38.686l-3.495-9.719h-13.382l-3.424,9.719h-6.032
	l13.095-35.143h6.225l13.095,35.143H163.862z"/>
<path id="Path_7957" d="M4.11,53.317c0.226-0.152,0.354-0.413,0.339-0.685c0.01-0.264-0.117-0.514-0.335-0.661
	c-0.309-0.18-0.665-0.262-1.022-0.236H1.255v1.814h1.922C3.504,53.568,3.829,53.487,4.11,53.317L4.11,53.317z M3.741,50.538
	c0.228-0.152,0.357-0.416,0.339-0.689c0.011-0.247-0.101-0.484-0.3-0.632c-0.256-0.165-0.558-0.243-0.862-0.224H1.252v1.768h1.582
	c0.315,0.015,0.628-0.063,0.9-0.223H3.741z M4.648,48.419c0.385,0.293,0.604,0.756,0.585,1.239c0.003,0.184-0.024,0.366-0.079,0.54
	c-0.047,0.147-0.117,0.286-0.206,0.412c-0.084,0.117-0.186,0.221-0.3,0.309c-0.111,0.085-0.228,0.16-0.351,0.227
	c0.184,0.064,0.361,0.146,0.53,0.241c0.153,0.086,0.293,0.196,0.413,0.325c0.118,0.13,0.209,0.282,0.267,0.447
	c0.066,0.193,0.098,0.396,0.094,0.601c0.006,0.271-0.054,0.54-0.174,0.783c-0.118,0.228-0.29,0.424-0.5,0.57
	c-0.233,0.164-0.496,0.282-0.773,0.35c-0.327,0.081-0.663,0.121-1,0.118H0.099v-6.613H3.06C3.625,47.936,4.185,48.094,4.648,48.419
	L4.648,48.419z"/>
<path id="Path_7958" d="M17.014,51.715c0.009,0.439-0.059,0.877-0.2,1.294c-0.121,0.348-0.316,0.666-0.572,0.931
	c-0.251,0.252-0.557,0.442-0.893,0.558c-0.379,0.127-0.776,0.189-1.176,0.184c-0.395,0.006-0.788-0.057-1.162-0.184
	c-0.333-0.115-0.637-0.305-0.888-0.554c-0.254-0.259-0.447-0.569-0.567-0.912c-0.14-0.405-0.208-0.832-0.2-1.261v-3.807h1.153v3.76
	c-0.036,0.509,0.124,1.013,0.447,1.408c0.323,0.331,0.773,0.507,1.235,0.481c0.456,0.025,0.901-0.143,1.226-0.463
	c0.324-0.383,0.484-0.878,0.446-1.379v-3.807h1.153L17.014,51.715z"/>
<rect id="Rectangle_5827" x="23.212" y="47.965" width="1.153" height="6.613"/>
<path id="Path_7959" d="M30.676,47.965h1.153v5.563h3.477v1.05h-4.629L30.676,47.965z"/>
<path id="Path_7960" d="M45.655,50.375c-0.105-0.268-0.263-0.511-0.464-0.717c-0.206-0.206-0.453-0.367-0.725-0.474
	c-0.302-0.117-0.623-0.175-0.947-0.171h-1.307v4.516h1.307c0.323,0.005,0.645-0.052,0.947-0.166
	c0.271-0.103,0.519-0.261,0.725-0.465c0.201-0.203,0.359-0.444,0.464-0.711C45.875,51.604,45.875,50.959,45.655,50.375z
	 M46.784,52.574c-0.165,0.398-0.411,0.757-0.723,1.054c-0.323,0.303-0.702,0.541-1.115,0.699c-0.454,0.175-0.936,0.261-1.422,0.256
	h-2.466V47.97h2.466c0.485-0.006,0.968,0.079,1.422,0.25c0.414,0.155,0.793,0.392,1.115,0.693c0.311,0.296,0.558,0.653,0.723,1.05
	c0.171,0.411,0.258,0.854,0.255,1.3c0.003,0.448-0.083,0.894-0.255,1.308V52.574z"/>
<rect id="Rectangle_5828" x="53.048" y="47.965" width="1.153" height="6.613"/>
<path id="Path_7961" d="M65.122,47.965h1.153v6.613h-0.972l-3.639-4.705v4.705h-1.153v-6.613h1.075l3.535,4.573L65.122,47.965z"/>
<path id="Path_7962" d="M77.862,54.059c-0.423,0.269-0.892,0.456-1.384,0.553c-0.274,0.055-0.552,0.081-0.831,0.08
	c-0.482,0.007-0.96-0.082-1.408-0.26c-0.407-0.162-0.775-0.406-1.082-0.718c-0.302-0.311-0.539-0.679-0.694-1.082
	c-0.167-0.431-0.25-0.89-0.246-1.352c-0.003-0.453,0.082-0.902,0.25-1.323c0.326-0.825,0.969-1.485,1.786-1.833
	c0.435-0.186,0.903-0.278,1.375-0.273c0.265-0.002,0.528,0.019,0.789,0.061c0.224,0.038,0.444,0.097,0.657,0.176
	c0.199,0.074,0.391,0.167,0.572,0.278c0.185,0.113,0.36,0.241,0.524,0.382l-0.737,0.88c-0.124-0.105-0.252-0.203-0.387-0.294
	c-0.131-0.087-0.271-0.161-0.416-0.222c-0.154-0.063-0.313-0.11-0.477-0.142c-0.188-0.036-0.38-0.054-0.571-0.053
	c-0.292-0.002-0.581,0.061-0.846,0.185c-0.259,0.121-0.49,0.293-0.68,0.506c-0.195,0.22-0.349,0.474-0.453,0.748
	c-0.112,0.29-0.168,0.599-0.166,0.909c-0.003,0.322,0.052,0.644,0.161,0.947c0.1,0.279,0.256,0.535,0.458,0.753
	c0.199,0.213,0.44,0.383,0.708,0.5c0.291,0.122,0.605,0.184,0.921,0.179c0.3,0.003,0.599-0.044,0.884-0.138
	c0.256-0.083,0.497-0.206,0.713-0.365v-1.244h-1.691v-1.011h2.816v2.777C78.235,53.808,78.053,53.94,77.862,54.059z"/>
<path id="Path_7963" d="M92.974,51.791v2.787h-1.152v-6.613h1.152v2.749h3.174v-2.749H97.3v6.613h-1.152v-2.787H92.974z"/>
<path id="Path_7964" d="M106.399,49.307l-1.135,2.646h2.277L106.399,49.307z M109.867,54.579h-1.229l-0.672-1.601h-3.129
	l-0.68,1.601h-1.191l2.91-6.661h1.077L109.867,54.579z"/>
<path id="Path_7965" d="M119.399,49.293c-0.298-0.204-0.654-0.303-1.015-0.28h-1.7v2.229h1.707c0.355,0.021,0.708-0.086,0.994-0.3
	c0.245-0.198,0.383-0.501,0.37-0.815c0.021-0.319-0.112-0.628-0.36-0.83L119.399,49.293z M119.778,54.578l-1.631-2.306h-1.459v2.306
	h-1.151v-6.613h2.948c0.347-0.005,0.692,0.045,1.024,0.146c0.284,0.086,0.548,0.228,0.775,0.416c0.211,0.18,0.378,0.406,0.487,0.661
	c0.207,0.516,0.225,1.088,0.052,1.616c-0.075,0.209-0.185,0.404-0.326,0.576c-0.142,0.169-0.311,0.313-0.5,0.425
	c-0.198,0.12-0.413,0.21-0.638,0.27l1.785,2.5L119.778,54.578z"/>
<path id="Path_7966" d="M130.161,52.953h-0.038l-2.069-3.101v4.725h-1.152v-6.613h1.238l2.012,3.127l2.012-3.127h1.238v6.613h-1.153
	v-4.743L130.161,52.953z"/>
<path id="Path_7967" d="M144.876,50.37c-0.104-0.278-0.262-0.533-0.463-0.751c-0.201-0.217-0.444-0.39-0.714-0.511
	c-0.577-0.248-1.231-0.248-1.81,0c-0.264,0.118-0.502,0.288-0.699,0.5c-0.199,0.218-0.354,0.471-0.458,0.746
	c-0.221,0.588-0.221,1.235,0,1.823c0.104,0.277,0.262,0.532,0.463,0.751c0.201,0.216,0.443,0.39,0.713,0.51
	c0.577,0.249,1.231,0.249,1.81,0c0.264-0.117,0.502-0.287,0.699-0.5c0.199-0.217,0.354-0.47,0.458-0.746
	C145.095,51.605,145.095,50.957,144.876,50.37L144.876,50.37z M146.005,52.586c-0.165,0.407-0.408,0.778-0.718,1.091
	c-0.659,0.662-1.56,1.029-2.494,1.016c-0.479,0.006-0.956-0.085-1.399-0.269c-0.822-0.338-1.471-0.994-1.801-1.819
	c-0.34-0.849-0.34-1.797,0-2.646c0.165-0.408,0.409-0.779,0.719-1.092c0.658-0.663,1.559-1.029,2.494-1.016
	c0.479-0.007,0.956,0.085,1.399,0.269c0.821,0.338,1.471,0.994,1.8,1.818C146.345,50.788,146.345,51.736,146.005,52.586
	L146.005,52.586z"/>
<path id="Path_7968" d="M156.813,47.965h1.152v6.613h-0.971l-3.639-4.705v4.705h-1.153v-6.613h1.075l3.535,4.573V47.965z"/>
<path id="Path_7969" d="M167.319,54.578h-1.172V51.97l-2.627-4.006h1.371l1.852,2.929l1.871-2.929h1.332l-2.626,3.977
	L167.319,54.578z"/>
<rect id="Rectangle_5829" y="43.25" width="169.951" height="1.065"/>
<g>
	<path d="M168.858,1.093c-0.669-0.67-1.563-1.039-2.508-1.039c-0.946,0-1.841,0.369-2.51,1.039c-0.667,0.67-1.038,1.561-1.038,2.509
		c0,0.946,0.371,1.837,1.038,2.508c0.669,0.669,1.563,1.038,2.51,1.038c0.944,0,1.839-0.369,2.508-1.038
		c0.667-0.671,1.038-1.562,1.038-2.508C169.896,2.653,169.525,1.762,168.858,1.093z M166.351,6.563c-1.633,0-2.963-1.33-2.963-2.962
		c0-1.634,1.33-2.964,2.963-2.964c1.631,0,2.961,1.33,2.961,2.964C169.312,5.233,167.981,6.563,166.351,6.563z"/>
	<path d="M167.164,3.692c0.457-0.199,0.691-0.523,0.691-0.975c0-0.341-0.151-0.611-0.443-0.81c-0.298-0.196-0.696-0.298-1.198-0.298
		c-0.336,0-0.718,0.038-1.142,0.108V5.58h0.56V3.873h0.707c0.575,0,0.938,0.568,1.1,1.707h0.557
		c-0.095-0.593-0.201-1.021-0.325-1.286C167.552,4.028,167.381,3.828,167.164,3.692z M166.311,3.443h-0.679V2.09
		c0.152-0.015,0.347-0.025,0.582-0.025c0.734,0,1.102,0.229,1.102,0.687C167.315,3.212,166.979,3.443,166.311,3.443z"/>
</g>
</svg>
