<?xml version="1.0" encoding="utf-8"?>
<!DOCTYPE svg PUBLIC "-//W3C//DTD SVG 1.0//EN" "http://www.w3.org/TR/2001/REC-SVG-20010904/DTD/svg10.dtd">
<svg version="1.0" xmlns="http://www.w3.org/2000/svg" width="836px" height="785px" viewBox="0 0 836 785" preserveAspectRatio="xMidYMid meet">
 <g fill="#ffffff">
  <path d="M0 392.67 l0 -392.67 418 0 418 0 0 392.67 0 392.67 -418 0 -418 0 0 -392.67z m47.97 384.04 c7.84 -3.48 12.98 -10.53 12.98 -17.89 0 -8.63 -5.22 -14.80 -17.65 -20.82 -12.27 -5.86 -15.75 -10.69 -14.49 -19.79 0.95 -7.13 4.59 -9.66 13.70 -9.66 7.05 0 9.82 1.66 12.67 7.52 1.19 2.38 2.53 4.28 3.01 4.12 1.11 -0.40 1.42 -3.33 0.79 -7.28 -0.47 -3.25 -0.63 -3.40 -4.20 -4.35 -2.06 -0.47 -6.41 -1.11 -9.74 -1.35 -12.51 -0.87 -23.75 5.15 -26.44 14.25 -2.45 8.23 1.35 13.54 15.91 22.48 9.98 6.10 14.25 10.61 14.96 15.60 0.95 5.94 -0.16 10.53 -3.17 13.77 l-2.61 2.93 -7.92 0 c-9.58 0 -11.32 -0.95 -14.65 -7.76 -2.93 -6.02 -4.51 -6.02 -4.51 0.08 0 7.20 1.27 8.15 13.06 9.98 5.22 0.79 14.49 -0.16 18.29 -1.82z m216.60 0.95 c0.63 -0.79 6.49 -15.12 12.90 -31.90 12.90 -33.72 12.59 -32.93 14.88 -35.39 l1.58 -1.82 -6.02 0 -6.10 0 1.27 1.98 c2.38 3.64 1.11 9.42 -6.97 30.88 l-7.44 19.79 -2.93 0.24 c-1.58 0.16 -2.93 0 -2.93 -0.24 0 -0.87 -5.30 -24.86 -7.44 -33.65 -2.22 -8.87 -2.53 -13.70 -1.27 -16.94 l0.79 -2.06 -9.02 0 -9.02 0 1.90 3.80 c1.03 2.06 5.78 17.10 10.69 33.41 4.83 16.31 9.26 30.48 9.90 31.51 1.35 2.06 3.56 2.30 5.22 0.40z m136.48 -1.42 c7.76 -3.80 12.98 -12.51 11.88 -19.63 -0.71 -4.20 -3.56 -9.10 -7.13 -12.27 -1.58 -1.35 -6.18 -4.04 -10.29 -6.02 -5.38 -2.61 -8.15 -4.43 -9.74 -6.57 -2.06 -2.69 -2.22 -3.33 -2.22 -10.61 0 -7.44 0.08 -7.92 2.22 -9.98 1.90 -1.98 2.85 -2.22 8.31 -2.45 7.76 -0.32 10.29 1.11 13.38 7.36 3.17 6.41 4.67 5.62 3.80 -1.98 -0.55 -4.59 -0.63 -4.75 -3.40 -5.54 -1.66 -0.40 -5.62 -1.03 -8.95 -1.27 -19.24 -1.66 -33.41 13.85 -24.07 26.20 0.95 1.35 4.04 3.96 6.73 5.94 9.90 7.13 16.70 12.82 18.21 15.28 2.22 3.56 2.22 13.38 0 16.94 -2.38 3.96 -5.54 5.22 -12.35 4.83 -5.15 -0.24 -6.10 -0.55 -8.23 -2.61 -1.35 -1.35 -3.40 -4.04 -4.51 -6.10 -1.19 -2.14 -2.38 -3.80 -2.69 -3.80 -1.03 0 -1.74 5.30 -1.19 9.10 0.63 3.88 1.11 4.20 8.39 5.22 7.84 1.11 17.18 0.24 21.85 -2.06z m-292.92 -0.47 l-2.06 -2.45 0 -16.15 0 -16.15 16.23 0 16.23 0 0 13.30 c0 14.49 -0.71 18.45 -3.80 21.77 l-2.06 2.14 8.87 0 8.95 0 -1.82 -2.45 -1.82 -2.45 0 -30.72 c0 -29.05 0.08 -30.80 1.50 -32.38 l1.50 -1.66 -8.15 0 -8.15 0 1.50 1.66 c1.35 1.50 1.50 3.01 1.50 15.28 l0 13.54 -15.20 0.24 -15.28 0.16 0 -13.70 c0 -11.08 0.24 -14.01 1.27 -15.44 l1.19 -1.74 -8.87 0 c-8.55 0 -8.79 0.08 -7.60 1.42 1.19 1.35 1.35 4.75 1.35 32.62 l0 31.19 -2.14 2.22 -2.14 2.22 10.53 0 10.53 0 -2.06 -2.45z m93.73 0.47 l-1.90 -2.06 -0.08 -31.11 c0 -29.61 0.08 -31.27 1.50 -32.85 l1.50 -1.66 -8.07 0 c-7.36 0 -8 0.08 -6.89 1.27 0.71 0.63 1.42 1.98 1.66 2.93 0.24 0.95 0.40 15.20 0.24 31.59 l-0.24 29.77 -1.90 2.06 -1.90 2.06 8.95 0 8.95 0 -1.82 -1.98z m259.11 0.79 c-2.77 -1.90 -3.40 -6.10 -3.40 -21.53 l0 -14.49 16.63 0 16.63 0 0 12.90 c0 14.09 -0.87 19.08 -4.04 22.40 l-1.74 1.90 10.05 0 10.05 0 -1.58 -2.06 c-1.58 -2.06 -1.66 -2.93 -1.66 -33.41 0 -28.02 0.16 -31.43 1.35 -32.78 1.19 -1.35 0.95 -1.42 -8 -1.42 l-9.26 0 1.50 1.66 c2.14 2.30 2.53 4.83 2.53 17.81 l0 11.40 -16.31 0 -16.31 0 0.32 -13.77 c0.24 -12.19 0.40 -13.93 1.74 -15.44 l1.50 -1.66 -7.68 0 -7.68 0 1.82 2.45 c1.82 2.38 1.82 2.93 2.06 25.73 0.32 25.49 -0.40 34.52 -3.09 38.79 l-1.66 2.69 8.95 0 c8.31 0 8.87 -0.08 7.28 -1.19z m84.87 -0.95 c-1.19 -1.74 -1.35 -3.25 -0.95 -8.47 0.24 -3.56 0.95 -7.84 1.58 -9.58 l1.11 -3.17 13.93 -0.24 13.93 -0.16 0.87 2.93 c1.58 5.78 1.90 14.65 0.55 17.89 l-1.27 2.93 9.50 0 9.50 0 -1.98 -3.33 c-1.82 -3.25 -14.17 -43.54 -19.48 -63.73 l-0.87 -3.40 -4.12 0 c-2.30 0 -4.51 0.32 -4.99 0.63 -0.55 0.32 -5.22 11.64 -10.53 25.10 -12.03 30.72 -15.68 39.50 -17.58 41.88 -0.87 1.03 -1.50 2.14 -1.50 2.38 0 0.24 3.09 0.47 6.81 0.47 l6.81 0 -1.35 -2.14z m96.11 0.08 c-1.90 -1.98 -1.90 -2.30 -2.14 -18.60 l-0.24 -16.55 4.35 0 c5.78 0 6.73 0.95 15.52 15.44 l7.20 11.88 -0.24 4.99 -0.24 4.91 11 0 10.93 0 -3.80 -4.20 c-3.56 -3.88 -17.65 -25.25 -21.61 -32.62 -2.69 -4.99 -2.22 -7.52 2.14 -12.82 2.14 -2.53 7.20 -8.07 11.32 -12.35 l7.44 -7.68 -7.84 0 c-6.18 0 -7.68 0.24 -6.97 0.95 0.55 0.55 0.95 2.77 0.95 5.07 0 3.64 -0.40 4.67 -3.72 9.10 -1.98 2.77 -6.10 7.44 -9.02 10.45 l-5.46 5.30 -6.02 0 -6.02 0 0.32 -13.62 c0.16 -9.10 0.63 -14.33 1.27 -15.44 l1.03 -1.82 -7.60 0 c-6.97 0 -7.52 0.08 -6.41 1.27 0.71 0.63 1.42 1.98 1.66 2.93 0.24 0.95 0.40 15.20 0.24 31.59 l-0.24 29.77 -1.90 2.06 -1.90 2.06 8.95 0 8.95 0 -1.90 -2.06z m108.06 -0.40 l-2.30 -2.38 0 -31.83 0 -31.83 5.15 0.08 c8.71 0.08 9.26 0.40 12.35 7.05 1.50 3.25 2.93 5.94 3.09 5.94 0.24 0 0.40 -3.17 0.40 -7.13 l0 -7.13 -28.50 0 -28.50 0 0 7.13 c0 3.96 0.32 7.13 0.71 7.13 0.40 0 1.50 -1.90 2.45 -4.28 0.95 -2.38 2.45 -4.99 3.40 -5.94 2.06 -1.90 8.63 -3.48 12.98 -3.09 l3.01 0.24 0.24 31.90 0.16 31.90 -2.30 2.38 -2.30 2.30 11.16 0 11.16 0 -2.38 -2.45z m69.03 0 l-2.06 -2.45 0 -30.64 c0 -26.44 0.16 -30.88 1.27 -32.38 l1.19 -1.74 -8.79 0 -8.79 0 1.19 1.74 c1.11 1.50 1.27 6.02 1.27 32.78 0 30.16 -0.08 31.03 -1.66 33.09 l-1.58 2.06 9.98 0 10.05 0 -2.06 -2.45z m-484.66 -181.61 c6.97 -1.11 13.62 -1.98 14.73 -1.98 1.19 0 2.38 -0.24 2.69 -0.55 0.32 -0.32 5.46 -2.22 11.40 -4.28 15.28 -5.15 15.28 -5.07 26.68 -12.67 13.30 -8.79 18.52 -13.06 29.85 -24.15 9.82 -9.66 15.52 -17.42 21.06 -28.42 4.28 -8.63 5.30 -11.88 8.63 -28.02 2.61 -12.90 2.85 -14.96 2.85 -27.79 0.08 -14.49 -0.63 -20.74 -3.96 -37.21 -3.48 -17.42 -7.92 -28.18 -18.84 -45.76 -6.02 -9.66 -9.58 -13.77 -36.02 -41.72 -4.59 -4.83 -9.66 -10.45 -11.32 -12.43 -4.20 -5.30 -22.25 -21.69 -27.39 -25.02 -2.45 -1.58 -7.44 -5.70 -11.16 -9.18 -3.72 -3.56 -9.34 -8.71 -12.51 -11.56 -3.17 -2.77 -7.05 -6.81 -8.63 -8.95 -3.80 -5.15 -27.15 -26.36 -34.60 -31.35 -5.94 -4.04 -26.60 -22.56 -26.60 -23.83 0 -0.40 -4.91 -5.86 -10.85 -12.11 -31.98 -33.33 -35.63 -37.84 -44.17 -55.02 -6.81 -13.77 -8.95 -22.64 -9.66 -40.93 -0.79 -20.50 1.42 -33.33 7.36 -42.20 3.48 -5.30 11.48 -13.22 15.28 -15.12 9.02 -4.59 25.41 -8 38.40 -8 10.45 0 15.44 0.71 32.85 4.35 15.68 3.33 22.33 6.25 32.93 14.57 3.96 3.09 14.73 10.77 24.07 17.02 l16.94 11.48 7.28 -16.78 c3.96 -9.26 8.39 -19.16 9.74 -22.09 l2.45 -5.38 -2.22 -1.50 c-4.28 -3.09 -20.27 -11.32 -28.50 -14.65 -17.89 -7.36 -35.78 -12.35 -53.28 -14.80 -10.53 -1.50 -14.41 -1.66 -29.53 -1.27 -33.33 0.79 -55.50 6.02 -73.63 17.34 -14.41 8.87 -31.35 22.80 -37.13 30.40 -4.04 5.30 -11.08 19.48 -13.54 27.23 -4.04 12.98 -5.30 28.98 -3.56 44.65 0.95 8.31 4.67 23.27 7.44 30.48 4.59 11.48 16.07 30.64 25.33 42.04 5.86 7.28 20.90 22.25 32.14 31.98 29.69 25.65 52.57 46.08 57 50.83 2.85 3.09 6.73 6.49 8.71 7.60 7.76 4.43 47.74 42.04 53.60 50.35 4.75 6.81 6.97 9.26 11.08 12.11 8.23 5.70 43.38 50.19 50.27 63.65 2.30 4.35 8.47 21.61 10.45 29.05 3.56 13.22 4.67 28.66 2.85 40.22 -1.98 12.59 -10.05 32.70 -16.31 40.61 -4.12 5.22 -12.35 12.03 -18.13 14.80 -6.73 3.33 -25.97 9.26 -37.21 11.56 -15.68 3.09 -38.87 2.38 -55.42 -1.74 -7.68 -1.90 -30.48 -9.82 -35.23 -12.19 -14.65 -7.44 -35.07 -23.91 -41.01 -33.25 -1.58 -2.38 -7.05 -10.05 -12.27 -17.02 -9.74 -13.06 -14.17 -21.06 -19.87 -36.02 -4.67 -12.03 -3.09 -11.08 -18.29 -11.08 l-13.06 0 0 2.22 c0 1.19 0.71 6.97 1.58 12.82 0.87 5.86 2.53 18.52 3.56 28.10 3.09 27 12.82 82.18 15.12 85.66 1.11 1.74 1.50 1.82 15.28 1.82 16.07 0 15.12 0.47 15.12 -7.28 l0 -3.80 3.48 0 c2.53 0 5.94 1.19 13.22 4.67 20.66 9.82 56.53 18.92 84.39 21.45 13.06 1.19 33.88 0.32 48.05 -1.98z m246.29 1.19 c17.10 -2.61 21.30 -3.33 22.96 -4.04 0.87 -0.32 4.20 -1.42 7.36 -2.30 10.05 -2.93 20.03 -7.44 30.08 -13.70 12.75 -7.92 17.34 -11.56 30 -23.27 15.20 -14.25 22.48 -26.44 27.15 -45.44 1.27 -5.38 3.25 -13.06 4.28 -16.94 4.67 -17.58 4.28 -42.59 -1.03 -59.77 -0.87 -2.85 -2.38 -8.31 -3.25 -12.27 -0.95 -3.88 -2.61 -9.34 -3.64 -12.19 -4.20 -11 -15.83 -30.08 -22.96 -37.45 -2.61 -2.77 -7.92 -8.55 -11.72 -12.90 -17.10 -19.48 -42.75 -45.52 -48.92 -49.56 -5.22 -3.33 -26.28 -22.25 -33.88 -30.32 -14.73 -15.75 -26.13 -26.13 -37.21 -33.88 -7.60 -5.30 -25.97 -22.01 -30.08 -27.31 -4.12 -5.30 -19.48 -22.01 -29.61 -32.30 -11.56 -11.64 -23.91 -31.67 -28.50 -46.15 -4.67 -14.88 -4.99 -43.70 -0.55 -56.60 3.25 -9.42 12.98 -21.14 20.90 -25.25 1.82 -0.87 7.36 -2.93 12.43 -4.43 8.47 -2.61 9.98 -2.77 22.17 -3.09 l13.06 -0.40 15.60 3.56 c25.57 5.94 30.48 8.63 49.48 27.23 14.65 14.33 19.40 19.55 25.02 27.95 2.22 3.25 5.30 7.52 6.81 9.50 5.15 6.81 11.08 21.77 14.33 36.42 2.45 11.24 3.09 13.30 4.43 14.65 0.95 0.95 3.17 1.19 10.29 1.19 l9.02 0 -0.16 -69.82 -0.24 -69.90 -12.98 -0.24 c-9.90 -0.16 -13.14 0.08 -13.70 0.79 -0.32 0.55 -0.63 3.96 -0.63 7.60 l0 6.49 -3.09 0 c-1.90 0 -5.54 -1.19 -9.66 -3.09 -16.63 -7.76 -41.80 -16.23 -58.03 -19.48 -16.31 -3.25 -23.83 -3.80 -42.35 -3.33 -14.09 0.40 -18.76 0.79 -26.68 2.45 -11.16 2.38 -21.53 5.86 -28.82 9.66 -14.01 7.44 -40.14 28.98 -46.31 38.32 -7.36 11.16 -12.98 24.54 -15.91 38 -2.22 10.05 -1.98 30 0.40 41.17 4.28 20.27 12.27 37.13 27 56.92 5.30 7.20 29.92 32.93 36.02 37.68 2.22 1.74 9.58 8 16.31 13.93 6.73 5.86 17.02 14.80 22.88 19.87 5.86 4.99 13.30 12.11 16.55 15.68 3.72 4.12 8.31 8.07 12.27 10.69 3.56 2.30 9.98 7.44 14.33 11.48 16.47 15.36 33.72 32.62 35.70 35.86 2.53 4.12 7.13 8.95 13.38 14.25 11.48 9.58 39.11 43.70 48.85 60.25 15.04 25.49 20.19 43.22 19.48 67.61 -0.32 10.93 -0.63 13.22 -2.53 18.76 -2.77 8 -4.67 11.24 -13.30 22.72 -11.56 15.20 -15.99 18.29 -36.42 25.02 -18.52 6.18 -29.21 8.07 -45.28 8.07 -12.98 0 -21.14 -0.79 -33.09 -3.17 -7.05 -1.42 -10.53 -2.53 -28.74 -8.39 -8.15 -2.69 -13.46 -5.38 -22.88 -11.64 l-7.60 -5.15 -4.43 6.89 c-2.45 3.72 -5.62 8.23 -7.05 9.98 -2.14 2.61 -9.90 17.02 -9.90 18.37 0 1.27 25.97 11.24 39.90 15.28 16.07 4.67 39.82 9.50 51.54 10.53 10.93 0.95 31.51 0.47 41.17 -1.03z m-232.67 -71.09 c10.37 -5.22 18.37 -12.82 23.99 -22.72 3.96 -6.97 3.96 -6.89 -2.06 -10.69 -18.92 -11.95 -25.49 -17.65 -54.86 -48.05 -5.15 -5.38 -12.03 -11.48 -15.83 -14.17 -3.72 -2.53 -12.75 -10.37 -20.03 -17.26 l-13.38 -12.59 3.72 7.44 c2.06 4.12 5.78 10.61 8.31 14.57 5.62 8.87 8.87 14.65 22.56 39.98 5.94 11.08 12.35 22.33 14.25 24.94 4.67 6.57 10.21 17.10 12.75 24.15 2.61 7.28 6.33 14.88 8.39 17.18 1.42 1.58 1.82 1.58 4.51 0.63 1.58 -0.55 5.07 -2.06 7.68 -3.40z m175.75 -111.86 c-0.63 -5.38 -1.58 -13.06 -2.06 -17.10 -1.11 -9.74 -4.04 -21.06 -7.36 -28.50 -1.58 -3.40 -3.40 -8.47 -4.20 -11.32 -0.71 -2.85 -2.69 -7.68 -4.43 -10.77 -7.05 -13.14 -24.23 -35.07 -30.88 -39.50 -4.99 -3.40 -21.61 -19.55 -27.23 -26.52 -5.62 -6.89 -28.98 -29.85 -36.73 -36.02 -2.93 -2.38 -8 -7.13 -11.16 -10.69 -5.62 -6.18 -13.30 -16.31 -13.38 -17.65 0 -0.40 -2.38 -5.70 -5.22 -11.88 -11 -23.51 -12.35 -27.95 -14.57 -47.34 -1.74 -14.96 -2.85 -18.37 -7.92 -24.46 -4.12 -4.91 -9.50 -8.87 -17.89 -13.14 l-6.65 -3.33 -1.19 2.69 c-5.15 12.27 -7.68 51.22 -4.67 71.41 2.77 18.76 12.11 39.11 22.80 49.72 2.22 2.22 6.89 7.28 10.29 11.32 3.48 4.04 10.29 11.64 15.28 16.86 4.91 5.22 10.69 11.88 12.67 14.80 6.02 8.47 10.77 13.62 17.26 18.68 8.79 6.89 41.64 42.12 45.76 49.08 1.74 3.09 5.15 7.36 7.52 9.50 7.13 6.57 12.90 12.35 39.19 39.03 13.93 14.09 25.41 25.49 25.57 25.25 0.24 -0.16 -0.16 -4.75 -0.79 -10.13z"/>
  <path d="M551 748.68 c0 -2.22 1.66 -7.84 4.67 -16.07 l4.75 -12.59 2.93 0 2.93 0 3.40 11.48 c2.14 7.36 3.40 13.14 3.40 16.07 l0.08 4.51 -11.08 0 -11.08 0 0 -3.40z"/>
 </g>
 <g fill="#e0030f">
  <path d="M283.97 598.50 c-27.79 -2.53 -63.73 -11.64 -84.39 -21.45 -5.38 -2.53 -10.29 -4.67 -10.85 -4.67 -0.79 0 -1.11 1.11 -1.11 3.80 0 7.84 1.27 7.28 -17.50 7.28 -16.23 0 -16.55 0 -17.65 -1.82 -2.30 -3.48 -12.03 -58.66 -15.12 -85.66 -1.03 -9.58 -2.61 -22.25 -3.48 -28.10 -0.87 -5.86 -1.74 -12.67 -1.82 -15.04 l-0.24 -4.35 15.36 -0.24 c10.37 -0.16 15.68 0.08 16.39 0.71 0.55 0.47 2.53 4.67 4.35 9.26 6.25 16.23 10.45 23.75 20.27 36.97 5.22 6.97 10.69 14.65 12.27 17.02 5.94 9.34 26.36 25.81 41.01 33.25 4.75 2.38 27.55 10.29 35.23 12.19 16.31 4.04 35.63 4.75 50.67 1.74 11.24 -2.30 30.48 -8.23 37.21 -11.56 5.78 -2.77 14.01 -9.58 18.13 -14.80 6.25 -7.92 14.33 -28.02 16.31 -40.61 1.58 -10.45 0.63 -22.40 -2.85 -35.47 -1.98 -7.44 -8.15 -24.70 -10.45 -29.05 -6.89 -13.46 -42.04 -57.95 -50.27 -63.65 -4.12 -2.85 -6.33 -5.30 -11.08 -12.11 -5.86 -8.31 -45.84 -45.92 -53.60 -50.35 -1.98 -1.11 -5.86 -4.51 -8.71 -7.60 -4.43 -4.75 -27.31 -25.17 -57 -50.83 -11.24 -9.74 -26.28 -24.70 -32.14 -31.98 -9.26 -11.40 -20.74 -30.56 -25.33 -42.04 -2.77 -7.20 -6.49 -22.17 -7.44 -30.48 -1.90 -17.02 -0.55 -36.26 3.56 -49.40 2.45 -7.76 9.50 -21.93 13.54 -27.23 5.78 -7.60 22.72 -21.53 37.13 -30.40 18.68 -11.64 40.45 -16.63 76 -17.34 17.42 -0.40 21.22 -0.24 31.90 1.27 23.99 3.40 49.72 11.80 70.70 23.04 9.66 5.22 14.17 8.31 14.17 9.66 0 0.40 -2.61 6.73 -5.86 14.01 -3.25 7.20 -7.76 17.58 -10.05 23.04 -5.22 12.51 -4.99 12.19 -8.15 10.53 -4.20 -2.14 -34.52 -22.88 -42.04 -28.82 -10.61 -8.31 -17.26 -11.24 -32.93 -14.57 -7.20 -1.50 -15.60 -3.09 -18.60 -3.56 -12.19 -1.74 -25.25 -0.47 -38.47 3.64 -9.10 2.85 -11.56 4.28 -17.10 9.74 -5.94 5.86 -9.90 11.72 -11.95 17.73 -2.30 6.57 -3.56 19.87 -3.01 31.03 0.87 16.23 3.17 25.49 9.66 38.55 8.55 17.18 12.19 21.69 44.17 55.02 5.94 6.25 10.85 11.72 10.85 12.11 0 1.27 20.66 19.79 26.60 23.83 7.44 4.99 30.80 26.20 34.60 31.35 1.58 2.14 5.46 6.18 8.63 8.95 3.17 2.85 8.79 8 12.51 11.56 3.72 3.48 8.71 7.60 11.16 9.18 5.15 3.33 23.20 19.71 27.39 25.02 1.66 1.98 6.73 7.60 11.32 12.43 26.44 27.95 30 32.06 36.02 41.72 10.93 17.58 15.36 28.34 18.92 45.76 3.33 16.86 4.04 23.43 3.96 39.98 -0.08 15.04 -0.16 16.55 -2.93 29.77 -3.33 16.15 -4.35 19.40 -8.63 28.02 -5.54 11 -11.24 18.76 -21.06 28.42 -11.32 11.08 -16.55 15.36 -29.85 24.15 -11.40 7.60 -11.40 7.52 -26.68 12.67 -5.94 2.06 -11.08 3.96 -11.40 4.28 -0.32 0.32 -1.50 0.55 -2.69 0.55 -1.11 0 -7.76 0.95 -14.73 2.06 -14.09 2.22 -38.71 3.17 -52.80 1.90z"/>
  <path d="M537.15 598.74 c-11.72 -1.03 -35.47 -5.86 -51.54 -10.53 -10.53 -3.09 -27.47 -9.26 -35.55 -12.98 -5.86 -2.69 -7.20 -4.43 -5.22 -6.49 0.47 -0.40 2.45 -4.12 4.43 -8.23 2.06 -4.12 4.35 -8.23 5.15 -9.10 0.79 -0.87 4.12 -5.46 7.36 -10.29 3.17 -4.75 6.41 -8.79 7.13 -8.95 0.71 -0.16 5.15 2.30 9.74 5.38 10.21 6.81 15.36 9.42 23.67 12.19 18.21 5.86 21.69 6.97 28.74 8.39 27.23 5.46 46.23 4.20 73.63 -4.91 20.42 -6.73 24.86 -9.82 36.42 -25.02 8.63 -11.48 10.61 -14.73 13.30 -22.72 1.74 -5.15 2.22 -8.23 2.53 -16.31 0.79 -21.53 -4.91 -40.61 -19.48 -65.31 -9.74 -16.55 -37.37 -50.67 -48.85 -60.25 -6.25 -5.30 -10.85 -10.13 -13.38 -14.25 -1.98 -3.25 -19.24 -20.50 -35.70 -35.86 -4.35 -4.04 -10.77 -9.18 -14.33 -11.48 -3.96 -2.61 -8.55 -6.57 -12.27 -10.69 -3.25 -3.56 -10.69 -10.69 -16.55 -15.68 -5.86 -5.07 -16.15 -14.01 -22.88 -19.87 -6.73 -5.94 -14.09 -12.19 -16.31 -13.93 -6.10 -4.75 -30.72 -30.48 -36.02 -37.68 -14.73 -19.79 -22.64 -36.58 -27 -56.92 -2.45 -11.32 -2.69 -35.63 -0.40 -45.92 2.93 -13.46 8.55 -26.84 15.91 -38 6.18 -9.34 32.30 -30.88 46.31 -38.32 7.28 -3.80 17.65 -7.28 28.82 -9.66 8.31 -1.74 12.19 -2.06 29.13 -2.45 21.06 -0.47 28.10 0.08 44.65 3.33 16.23 3.25 41.40 11.72 58.03 19.48 3.64 1.66 6.97 3.09 7.28 3.09 0.40 0 0.71 -2.93 0.71 -6.49 0 -3.64 0.32 -7.05 0.63 -7.60 0.55 -0.71 4.28 -0.95 16.07 -0.79 l15.36 0.24 0.24 72.28 0.16 72.20 -11.40 0 c-9.26 0 -11.72 -0.24 -12.67 -1.19 -1.35 -1.35 -1.98 -3.40 -4.43 -14.65 -3.25 -14.65 -9.18 -29.61 -14.33 -36.42 -1.50 -1.98 -4.59 -6.25 -6.81 -9.50 -5.62 -8.39 -10.37 -13.62 -25.02 -27.95 -19 -18.60 -23.91 -21.30 -49.48 -27.23 -15.28 -3.48 -15.83 -3.56 -26.28 -3.17 -9.34 0.32 -11.88 0.71 -19.79 3.09 -5.07 1.58 -10.61 3.56 -12.43 4.43 -7.92 4.12 -17.65 15.83 -20.90 25.25 -4.28 12.59 -4.04 37.21 0.55 51.85 4.59 14.49 16.94 34.52 28.50 46.15 10.13 10.29 25.49 27 29.61 32.30 4.12 5.30 22.48 22.01 30.08 27.31 11.08 7.76 22.48 18.13 37.21 33.88 7.60 8.07 28.66 27 33.88 30.32 6.18 4.04 31.83 30.08 48.92 49.56 3.80 4.35 9.10 10.13 11.72 12.90 7.13 7.36 18.76 26.44 22.96 37.45 1.03 2.85 2.69 8.31 3.64 12.19 0.87 3.96 2.38 9.42 3.25 12.27 5.46 17.65 5.94 46.31 1.03 64.44 -1.03 3.96 -3.01 11.64 -4.28 17.02 -4.67 19 -11.95 31.19 -27.15 45.44 -12.67 11.72 -17.26 15.36 -30 23.27 -10.05 6.25 -20.03 10.77 -30.08 13.70 -3.17 0.87 -6.49 1.98 -7.36 2.30 -1.66 0.71 -5.86 1.42 -22.96 4.04 -8.07 1.27 -13.85 1.58 -26.52 1.42 -8.95 -0.08 -17.65 -0.24 -19.40 -0.40z"/>
  <path d="M333.61 529.47 c-2.22 -2.38 -5.94 -9.82 -8.55 -17.26 -2.53 -7.05 -8.07 -17.58 -12.75 -24.15 -1.90 -2.61 -8.31 -13.85 -14.25 -24.94 -13.70 -25.33 -16.94 -31.11 -22.56 -39.98 -7.36 -11.56 -15.75 -29.45 -14.49 -30.80 1.11 -1.03 3.25 -0.40 5.07 1.58 6.81 7.36 29.92 28.42 35.55 32.30 3.80 2.69 10.69 8.79 15.83 14.17 29.53 30.56 34.99 35.31 55.26 48.29 6.73 4.35 6.89 4.91 3.09 12.51 -5.94 11.80 -13.85 19.48 -26.36 25.81 -8.95 4.43 -13.46 5.15 -15.83 2.45z"/>
  <path d="M522.42 424.89 c-1.58 -0.95 -15.52 -14.65 -31.03 -30.40 -15.44 -15.83 -29.85 -30.08 -31.98 -31.75 -3.48 -2.77 -5.78 -5.70 -11.48 -14.80 -3.33 -5.22 -37.21 -40.77 -43.78 -45.92 -6.49 -5.07 -11.24 -10.21 -17.26 -18.68 -1.98 -2.93 -7.76 -9.58 -12.67 -14.80 -4.99 -5.22 -11.80 -12.82 -15.28 -16.86 -3.40 -4.04 -8.07 -9.10 -10.29 -11.32 -10.69 -10.61 -20.03 -30.95 -22.80 -49.72 -2.30 -15.12 -1.42 -48.77 1.50 -63.97 1.58 -8 4.51 -16.70 5.70 -17.18 0.55 -0.24 2.14 0.55 3.56 1.82 1.42 1.19 4.59 3.01 6.97 4.12 9.66 4.20 18.84 12.67 22.17 20.27 1.11 2.38 2.14 8.07 3.17 17.02 2.22 19.40 3.56 23.83 14.57 47.34 2.85 6.18 5.22 11.48 5.22 11.88 0.08 1.35 7.76 11.48 13.38 17.65 3.17 3.56 8.23 8.31 11.16 10.69 7.76 6.18 31.11 29.13 36.73 36.02 5.62 6.97 22.25 23.12 27.23 26.52 6.65 4.43 23.83 26.36 30.88 39.50 1.74 3.09 3.72 7.92 4.43 10.77 0.79 2.85 2.61 7.92 4.20 11.32 3.17 7.20 6.18 18.52 7.28 27.63 3.56 29.53 3.80 33.88 2.06 34.44 -0.40 0.08 -2.06 -0.55 -3.64 -1.58z"/>
 </g>
 <g fill="#020202">
  <path d="M27.31 780.90 c-12.51 -1.90 -13.06 -2.45 -13.06 -12.35 l0 -6.97 3.56 0 c3.48 0 3.48 0 5.70 4.51 3.09 6.33 5.38 7.76 12.11 7.76 4.91 0 5.62 -0.24 7.92 -2.38 3.09 -2.93 4.28 -7.28 3.17 -11.40 -1.03 -3.96 -6.25 -8.79 -15.36 -14.33 -14.80 -8.87 -18.45 -15.36 -15.12 -26.68 2.69 -8.95 12.75 -14.49 26.44 -14.49 6.18 0 17.10 1.66 18.13 2.77 0.79 0.79 1.03 14.25 0.32 15.36 -0.55 0.71 -1.58 0.95 -3.48 0.55 -2.30 -0.40 -3.01 -1.11 -4.83 -4.83 -2.85 -5.78 -5.86 -7.68 -11.48 -7.28 -5.15 0.40 -8.07 2.38 -9.50 6.49 -2.30 6.89 1.74 12.19 13.85 17.97 13.06 6.33 17.97 12.51 17.97 22.80 0 6.89 -1.42 10.61 -5.62 15.12 -5.15 5.46 -9.82 7.28 -20.03 7.52 -4.59 0.08 -9.34 0 -10.69 -0.16z"/>
  <path d="M256.98 779.63 c-0.63 -1.03 -5.07 -15.20 -9.98 -31.51 -4.83 -16.31 -9.42 -31.03 -10.13 -32.70 -0.63 -1.66 -2.22 -3.72 -3.48 -4.59 -1.19 -0.87 -2.22 -2.30 -2.22 -3.17 0 -1.42 0.71 -1.50 15.04 -1.50 12.75 0 15.04 0.16 15.04 1.19 0 0.63 -1.03 1.90 -2.38 2.85 -1.27 0.95 -2.53 2.69 -2.77 3.96 -0.32 1.27 0.63 6.81 2.30 13.93 2.93 12.19 6.81 29.85 6.81 30.88 0 2.14 2.38 -3.40 8.63 -20.03 9.18 -24.62 9.02 -23.91 4.91 -27.95 -1.82 -1.74 -3.25 -3.56 -3.25 -4.04 0 -0.47 4.20 -0.79 11.88 -0.79 11.08 0 11.88 0.08 11.88 1.50 0 0.79 -1.27 2.45 -2.77 3.56 -1.50 1.19 -3.25 3.09 -3.88 4.28 -0.55 1.19 -6.33 15.83 -12.75 32.62 -6.41 16.78 -12.27 31.11 -12.90 31.90 -0.79 0.95 -2.38 1.35 -4.99 1.35 -3.09 0 -4.04 -0.32 -4.99 -1.74z"/>
  <path d="M376.83 780.66 c-8.31 -1.19 -8.71 -1.66 -8.71 -11.08 0 -7.05 0.47 -8 3.96 -8 2.69 0 3.09 0.32 4.99 3.80 4.28 7.84 10.45 10.77 16.31 7.76 5.07 -2.69 7.20 -10.13 4.43 -15.52 -1.35 -2.61 -8.15 -8.55 -15.60 -13.62 -11.48 -7.76 -14.49 -13.46 -12.51 -23.20 0.79 -4.04 1.58 -5.38 5.07 -8.79 3.33 -3.40 4.99 -4.43 9.90 -5.86 5.07 -1.58 6.97 -1.74 14.25 -1.35 4.59 0.32 9.66 0.87 11.24 1.35 2.61 0.71 2.93 1.11 3.40 4.43 0.79 6.25 0.55 11.16 -0.71 12.19 -0.63 0.55 -2.06 0.71 -3.40 0.47 -1.74 -0.40 -2.69 -1.50 -4.35 -4.83 -2.77 -5.70 -5.94 -7.76 -11.08 -7.28 -2.85 0.24 -4.43 0.87 -5.94 2.45 -1.90 1.82 -2.14 2.69 -2.14 7.52 0 7.52 1.98 9.98 11.95 14.80 12.43 5.94 16.86 11.16 17.58 20.82 0.71 9.98 -3.64 17.73 -12.19 21.93 -3.80 1.82 -5.46 2.14 -13.22 2.38 -4.91 0.08 -10.85 -0.08 -13.22 -0.40z"/>
  <path d="M84.71 779.40 c0 -0.71 1.42 -2.77 3.17 -4.67 l3.17 -3.40 0 -28.98 0 -28.90 -3.17 -2.53 c-5.62 -4.51 -4.99 -4.75 11.88 -4.75 10.85 0 15.04 0.24 15.04 0.95 0 0.47 -1.42 2.22 -3.17 3.80 l-3.17 2.93 0 11.64 0 11.56 12.90 -0.16 12.82 -0.24 0 -11.24 0 -11.24 -2.93 -3.01 c-1.66 -1.74 -3.01 -3.48 -3.01 -4.04 0 -0.71 3.56 -0.95 13.85 -0.95 7.60 0 13.85 0.24 13.85 0.55 0 0.32 -1.50 2.14 -3.33 4.04 l-3.40 3.40 -0.24 25.49 c-0.16 14.01 0 27.08 0.24 28.98 0.40 2.45 1.35 4.35 3.64 6.81 1.66 1.82 3.09 3.72 3.09 4.28 0 0.63 -4.04 0.87 -13.85 0.87 -12.82 0 -13.85 -0.08 -13.85 -1.42 0 -0.79 1.42 -2.77 3.09 -4.43 4.04 -3.96 4.83 -7.28 4.83 -20.58 l0 -10.77 -13.85 0 -13.85 0 0 13.77 0 13.70 3.17 4.04 c1.74 2.14 3.17 4.35 3.17 4.83 0 0.63 -4.59 0.87 -15.04 0.87 -12.90 0 -15.04 -0.16 -15.04 -1.19z"/>
  <path d="M181.29 779.24 c0 -0.71 1.35 -2.69 3.01 -4.43 l2.93 -3.01 0.24 -27.79 c0.16 -18.68 -0.08 -28.58 -0.63 -29.92 -0.47 -1.11 -1.90 -2.69 -3.17 -3.48 -1.35 -0.71 -2.38 -2.06 -2.38 -2.93 0 -1.42 0.63 -1.50 13.46 -1.50 9.98 0 13.46 0.24 13.46 0.95 0 0.55 -1.35 2.30 -2.93 4.04 l-3.01 3.01 0.16 28.98 0.08 28.90 2.85 2.93 c5.22 5.38 4.75 5.62 -10.61 5.62 -12.19 0 -13.46 -0.16 -13.46 -1.35z"/>
  <path d="M440.17 779.32 c0 -0.63 1.11 -2.53 2.38 -4.20 1.35 -1.58 2.77 -4.20 3.25 -5.70 1.11 -3.25 1.90 -40.22 1.11 -48.77 -0.47 -5.54 -0.79 -6.25 -3.64 -9.34 -1.66 -1.82 -3.09 -3.72 -3.09 -4.28 0 -0.63 3.96 -0.87 13.46 -0.87 8.79 0 13.46 0.32 13.46 0.79 0 0.47 -1.50 2.22 -3.33 3.96 l-3.40 3.09 -0.24 11.56 -0.32 11.48 13.93 0 13.93 0 0 -9.02 c0 -11.80 -0.40 -13.46 -4.04 -16.86 -5.15 -4.91 -4.91 -4.99 11.56 -4.99 16.31 0 16.63 0.16 11.88 4.75 l-2.77 2.69 0 29.13 0 29.13 3.17 3.48 c1.74 1.90 3.17 3.80 3.17 4.35 0 0.63 -4.35 0.87 -15.04 0.87 -13.93 0 -15.04 -0.08 -15.04 -1.42 0 -0.79 1.27 -2.61 2.77 -4.12 4.04 -3.88 5.15 -8.47 5.15 -21.14 l0 -10.53 -14.25 0 -14.25 0 0 12.11 c0 6.57 0.32 13.22 0.79 14.73 0.40 1.50 1.98 3.88 3.56 5.22 5.22 4.83 4.51 5.15 -10.69 5.15 -11.64 0 -13.46 -0.16 -13.46 -1.27z"/>
  <path d="M528.04 779.79 c0 -0.47 1.35 -2.53 3.01 -4.67 3.48 -4.43 5.86 -9.82 19.24 -44.02 5.30 -13.54 9.98 -24.78 10.53 -25.10 0.47 -0.32 3.80 -0.63 7.36 -0.63 l6.49 0 0.87 3.40 c1.42 5.38 5.22 18.45 11.64 40.14 5.62 19.08 8.07 25.33 10.85 27.71 0.71 0.55 1.27 1.66 1.27 2.45 0 1.42 -0.87 1.50 -14.25 1.50 -13.30 0 -14.25 -0.08 -14.25 -1.42 0 -0.87 0.71 -2.14 1.58 -2.93 3.25 -2.93 3.72 -7.84 1.50 -16.47 l-0.79 -3.01 -11.56 0.24 -11.56 0.24 -1.11 3.17 c-0.63 1.74 -1.27 5.15 -1.58 7.52 -0.40 4.35 -0.40 4.51 2.85 7.84 1.82 1.82 3.09 3.72 2.77 4.12 -0.63 1.03 -24.86 0.95 -24.86 -0.08z m42.67 -32.22 c-0.08 -3.09 -6.65 -25.17 -7.44 -25.02 -0.71 0.16 -9.90 24.46 -9.90 26.13 0 0.79 2.06 1.03 8.71 1.03 l8.71 0 -0.08 -2.14z"/>
  <path d="M621.46 779.24 c0 -0.71 1.35 -2.69 3.01 -4.43 l2.93 -3.01 0.24 -27.47 c0.16 -15.12 0 -28.26 -0.24 -29.21 -0.24 -1.03 -1.66 -2.93 -3.17 -4.35 -4.83 -4.35 -4.35 -4.59 10.69 -4.59 14.65 0 15.52 0.32 11.08 3.96 -3.17 2.61 -3.88 5.94 -3.96 17.65 l0 9.26 3.56 0 c3.33 0 3.88 -0.32 9.02 -5.38 6.65 -6.57 12.75 -14.80 12.75 -17.18 0 -1.11 -1.03 -2.61 -2.77 -3.88 -5.30 -4.04 -4.35 -4.43 11.48 -4.43 16.07 0 17.02 0.40 10.69 4.75 -3.33 2.30 -21.14 20.98 -22.56 23.83 -0.87 1.58 0.32 3.88 10.61 20.03 4.35 6.97 10.05 14.88 12.59 17.58 2.53 2.77 4.51 5.62 4.51 6.57 0 1.66 -0.24 1.66 -15.04 1.66 -13.77 0 -15.04 -0.08 -15.04 -1.35 0 -0.79 0.55 -2.14 1.19 -2.93 2.22 -2.93 1.27 -5.54 -5.94 -17.58 -7.68 -12.59 -10.05 -15.36 -13.14 -15.36 l-1.98 0 0.24 14.17 0.24 14.09 3.01 3.33 c4.99 5.54 4.83 5.62 -10.53 5.62 -12.19 0 -13.46 -0.16 -13.46 -1.35z"/>
  <path d="M725.72 780.11 c-0.79 -0.79 0.95 -3.48 3.88 -6.33 l2.69 -2.45 0 -29.45 c0 -23.75 -0.24 -29.53 -1.03 -29.85 -1.82 -0.63 -8.79 1.27 -10.61 3.01 -0.95 0.87 -2.45 3.48 -3.40 5.86 -1.74 4.12 -1.90 4.28 -4.83 4.28 l-3.09 0 0 -9.50 0 -9.50 30.88 0 30.88 0 0 9.50 0 9.50 -2.77 0 c-2.61 0 -2.85 -0.24 -5.46 -5.94 -2.93 -6.25 -3.33 -6.57 -9.58 -6.97 l-3.17 -0.16 0 29.45 0 29.45 3.40 3.40 c5.86 6.02 5.62 6.18 -11.95 6.18 -8.47 0 -15.60 -0.24 -15.83 -0.47z"/>
  <path d="M796.02 779.87 c-0.24 -0.40 1.03 -2.38 2.77 -4.43 l3.17 -3.64 0 -28.90 0 -28.82 -2.77 -3.09 c-1.50 -1.66 -2.77 -3.48 -2.77 -3.96 0 -0.63 4.12 -0.87 13.85 -0.87 15.60 0 15.99 0.16 11.48 5.30 l-2.38 2.69 0 28.42 0 28.42 2.30 2.69 c1.27 1.42 2.61 3.56 2.85 4.75 l0.55 2.14 -14.25 0 c-7.92 0 -14.49 -0.32 -14.80 -0.71z"/>
 </g>
</svg>